HIERARCHY
ROOT Hips
{
    OFFSET   0.000000   0.000000   0.000000
    CHANNELS 6 Xposition Yposition Zposition Zrotation Xrotation Yrotation
    JOINT Chest
    {
        OFFSET   0.000000   8.007240   0.000000
        CHANNELS 3 Zrotation Xrotation Yrotation
        JOINT Chest2
        {
            OFFSET   0.000000  22.077100   0.000000
            CHANNELS 3 Zrotation Xrotation Yrotation
            JOINT Neck
            {
                OFFSET   0.000000  23.254800   0.000000
                CHANNELS 3 Zrotation Xrotation Yrotation
                JOINT Head
                {
                    OFFSET   0.000000  14.370000   1.956600
                    CHANNELS 3 Zrotation Xrotation Yrotation
                    End Site
                    {
                        OFFSET   0.000000  19.566000   0.000000
                    }
                }
            }
            JOINT LeftCollar
            {
                OFFSET   3.911900  19.017000  -0.467064
                CHANNELS 3 Zrotation Xrotation Yrotation
                JOINT LeftShoulder
                {
                    OFFSET  10.383700   0.000000   0.000000
                    CHANNELS 3 Zrotation Xrotation Yrotation
                    JOINT LeftElbow
                    {
                        OFFSET  26.662100   0.001476   0.000517
                        CHANNELS 3 Zrotation Xrotation Yrotation
                        JOINT LeftWrist
                        {
                            OFFSET  28.869000  -0.000025  -0.000106
                            CHANNELS 3 Zrotation Xrotation Yrotation
                            JOINT LeftFinger0
                            {
                                OFFSET   2.044660  -2.323460   3.252850
                                CHANNELS 3 Zrotation Xrotation Yrotation
                                JOINT LeftFinger01
                                {
                                    OFFSET   3.088130   0.000000   0.000000
                                    CHANNELS 3 Zrotation Xrotation Yrotation
                                    JOINT LeftFinger02
                                    {
                                        OFFSET   2.639460   0.000000   0.000000
                                        CHANNELS 3 Zrotation Xrotation Yrotation
                                        End Site
                                        {
                                            OFFSET   2.582190   0.000000   0.000000
                                        }
                                    }
                                }
                            }
                            JOINT LeftFinger1
                            {
                                OFFSET   8.364480   0.000000   3.252850
                                CHANNELS 3 Zrotation Xrotation Yrotation
                                JOINT LeftFinger11
                                {
                                    OFFSET   4.646930   0.000000   0.000000
                                    CHANNELS 3 Zrotation Xrotation Yrotation
                                    JOINT LeftFinger12
                                    {
                                        OFFSET   2.323460   0.000000   0.000000
                                        CHANNELS 3 Zrotation Xrotation Yrotation
                                        End Site
                                        {
                                            OFFSET   2.273050   0.000000   0.000000
                                        }
                                    }
                                }
                            }
                            JOINT LeftFinger2
                            {
                                OFFSET   8.364490   0.000015   1.078090
                                CHANNELS 3 Zrotation Xrotation Yrotation
                                JOINT LeftFinger21
                                {
                                    OFFSET   5.111620   0.000000   0.000000
                                    CHANNELS 3 Zrotation Xrotation Yrotation
                                    JOINT LeftFinger22
                                    {
                                        OFFSET   2.788160   0.000016   0.000000
                                        CHANNELS 3 Zrotation Xrotation Yrotation
                                        End Site
                                        {
                                            OFFSET   2.727660   0.000000   0.000000
                                        }
                                    }
                                }
                            }
                            JOINT LeftFinger3
                            {
                                OFFSET   7.899780   0.000017  -1.078090
                                CHANNELS 3 Zrotation Xrotation Yrotation
                                JOINT LeftFinger31
                                {
                                    OFFSET   4.646930   0.000000   0.000000
                                    CHANNELS 3 Zrotation Xrotation Yrotation
                                    JOINT LeftFinger32
                                    {
                                        OFFSET   2.323470   0.000000   0.000000
                                        CHANNELS 3 Zrotation Xrotation Yrotation
                                        End Site
                                        {
                                            OFFSET   2.273050   0.000000   0.000000
                                        }
                                    }
                                }
                            }
                            JOINT LeftFinger4
                            {
                                OFFSET   7.435090   0.000000  -3.252850
                                CHANNELS 3 Zrotation Xrotation Yrotation
                                JOINT LeftFinger41
                                {
                                    OFFSET   3.717550   0.000000   0.000000
                                    CHANNELS 3 Zrotation Xrotation Yrotation
                                    JOINT LeftFinger42
                                    {
                                        OFFSET   1.858770   0.000000   0.000000
                                        CHANNELS 3 Zrotation Xrotation Yrotation
                                        End Site
                                        {
                                            OFFSET   1.818440   0.000000   0.000000
                                        }
                                    }
                                }
                            }
                        }
                    }
                }
            }
            JOINT RightCollar
            {
                OFFSET  -3.911900  19.017000  -0.467063
                CHANNELS 3 Zrotation Xrotation Yrotation
                JOINT RightShoulder
                {
                    OFFSET -10.383700   0.000019   0.000000
                    CHANNELS 3 Zrotation Xrotation Yrotation
                    JOINT RightElbow
                    {
                        OFFSET -26.662100   0.001175   0.000102
                        CHANNELS 3 Zrotation Xrotation Yrotation
                        JOINT RightWrist
                        {
                            OFFSET -28.869000   0.000016  -0.000079
                            CHANNELS 3 Zrotation Xrotation Yrotation
                            JOINT RightFinger0
                            {
                                OFFSET  -2.044660  -2.323490   3.252850
                                CHANNELS 3 Zrotation Xrotation Yrotation
                                JOINT RightFinger01
                                {
                                    OFFSET  -3.088140   0.000000   0.000000
                                    CHANNELS 3 Zrotation Xrotation Yrotation
                                    JOINT RightFinger02
                                    {
                                        OFFSET  -2.639460   0.000000   0.000000
                                        CHANNELS 3 Zrotation Xrotation Yrotation
                                        End Site
                                        {
                                            OFFSET  -2.582190   0.000000   0.000000
                                        }
                                    }
                                }
                            }
                            JOINT RightFinger1
                            {
                                OFFSET  -8.364480   0.000000   3.252850
                                CHANNELS 3 Zrotation Xrotation Yrotation
                                JOINT RightFinger11
                                {
                                    OFFSET  -4.646930   0.000000   0.000000
                                    CHANNELS 3 Zrotation Xrotation Yrotation
                                    JOINT RightFinger12
                                    {
                                        OFFSET  -2.323470   0.000000   0.000000
                                        CHANNELS 3 Zrotation Xrotation Yrotation
                                        End Site
                                        {
                                            OFFSET  -2.273050   0.000000   0.000000
                                        }
                                    }
                                }
                            }
                            JOINT RightFinger2
                            {
                                OFFSET  -8.364480   0.000000   1.078090
                                CHANNELS 3 Zrotation Xrotation Yrotation
                                JOINT RightFinger21
                                {
                                    OFFSET  -5.111620   0.000000   0.000000
                                    CHANNELS 3 Zrotation Xrotation Yrotation
                                    JOINT RightFinger22
                                    {
                                        OFFSET  -2.788160   0.000000   0.000000
                                        CHANNELS 3 Zrotation Xrotation Yrotation
                                        End Site
                                        {
                                            OFFSET  -2.727660   0.000000   0.000000
                                        }
                                    }
                                }
                            }
                            JOINT RightFinger3
                            {
                                OFFSET  -7.899780   0.000000  -1.078090
                                CHANNELS 3 Zrotation Xrotation Yrotation
                                JOINT RightFinger31
                                {
                                    OFFSET  -4.646930   0.000000   0.000000
                                    CHANNELS 3 Zrotation Xrotation Yrotation
                                    JOINT RightFinger32
                                    {
                                        OFFSET  -2.323470   0.000000   0.000000
                                        CHANNELS 3 Zrotation Xrotation Yrotation
                                        End Site
                                        {
                                            OFFSET  -2.273050   0.000000   0.000000
                                        }
                                    }
                                }
                            }
                            JOINT RightFinger4
                            {
                                OFFSET  -7.435090   0.000000  -3.252850
                                CHANNELS 3 Zrotation Xrotation Yrotation
                                JOINT RightFinger41
                                {
                                    OFFSET  -3.717550   0.000000   0.000000
                                    CHANNELS 3 Zrotation Xrotation Yrotation
                                    JOINT RightFinger42
                                    {
                                        OFFSET  -1.858770   0.000000   0.000000
                                        CHANNELS 3 Zrotation Xrotation Yrotation
                                        End Site
                                        {
                                            OFFSET  -1.818440   0.000000   0.000000
                                        }
                                    }
                                }
                            }
                        }
                    }
                }
            }
        }
    }
    JOINT LeftHip
    {
        OFFSET   9.783040   0.000000   0.000000
        CHANNELS 3 Zrotation Xrotation Yrotation
        JOINT LeftKnee
        {
            OFFSET   0.000032 -41.789100  -0.002222
            CHANNELS 3 Zrotation Xrotation Yrotation
            JOINT LeftAnkle
            {
                OFFSET   0.000087 -41.133200  -0.000135
                CHANNELS 3 Zrotation Xrotation Yrotation
                JOINT LeftToe
                {
                    OFFSET   0.000000  -6.358960  14.674500
                    CHANNELS 3 Zrotation Xrotation Yrotation
                    End Site
                    {
                        OFFSET   0.000000   0.000000   3.913200
                    }
                }
            }
        }
    }
    JOINT RightHip
    {
        OFFSET  -9.783040   0.000000   0.000000
        CHANNELS 3 Zrotation Xrotation Yrotation
        JOINT RightKnee
        {
            OFFSET   0.000047 -41.789100  -0.000896
            CHANNELS 3 Zrotation Xrotation Yrotation
            JOINT RightAnkle
            {
                OFFSET  -0.000117 -41.133300  -0.000248
                CHANNELS 3 Zrotation Xrotation Yrotation
                JOINT RightToe
                {
                    OFFSET   0.000000  -6.358970  14.674500
                    CHANNELS 3 Zrotation Xrotation Yrotation
                    End Site
                    {
                        OFFSET   0.000000   0.000000   3.913200
                    }
                }
            }
        }
    }
}
MOTION
Frames: 6
Frame Time:   0.016667
  1.287580  89.501900  -0.524378  -2.735720  -3.674090  -2.579490   1.449800   3.676650   0.377936   2.884170   7.361640   0.664371  -0.571381  -0.683266  -0.010265  -0.938950  -1.384840   6.370190  -5.151580   2.483550  -1.429250 -71.638200  16.119800  -8.292040  -3.169340  -7.451800 -13.635500   6.587060  -6.036250  13.471200  40.301000  28.124200 -61.957800 -24.644700  -0.005876   0.011738  -7.322340  -0.002930   0.002322 -34.541900   6.684520  -9.597950 -28.721200  -0.001554  -0.002236 -20.104900   0.005004  -0.001821 -28.705900   2.261780  -4.123210 -41.326200  -0.001853  -0.000802 -27.523300   0.010470  -0.000920 -28.727400  -0.859803   1.568180 -39.993800   0.008044   0.000701 -26.635800   0.001901   0.000360 -35.574100  -1.040590   1.454530 -53.381000  -0.001805   0.000488 -35.551800   0.002233  -0.001816   4.891710   0.703684   9.697850  69.956800  14.582300   2.052020   1.125130   0.875248   9.235700 -12.604200 -18.585100  -2.208760 -45.573100  42.906100  81.175600  29.521100  -0.001560   0.000965   9.767610   0.000182   0.000861  40.156700   6.168730   7.257720  33.175800   0.000757   0.002585  23.382000   0.006216   0.002635  31.050300   4.951470   8.144950  47.105400  -0.001219   0.005205  31.372200  -0.005052   0.009353  31.555100   3.560220   5.775270  47.602400  -0.002643   0.013815  31.703200   0.000721   0.012759  38.432000  -0.631847  -0.799609  57.654500   0.007164  -0.006279  38.398000  -0.003027  -0.001608   2.478800   6.704300   0.937308   0.688637   0.582711  -0.076236  -1.617770  -3.493530  13.178800  -0.000000   0.000000  -0.000000   1.173180   1.076960  -5.268530   1.698260   5.528570   0.837271  -5.690140  -2.290340   1.001930   0.000000   0.000000  -0.000000
  1.287590  89.501900  -0.524298  -2.734870  -3.674120  -2.566660   1.448480   3.676440   0.380412   2.881350   7.361270   0.669442  -0.560938  -0.665525  -0.010255  -0.921842  -1.349100   6.346400  -5.151040   2.494950  -1.434160 -71.641200  16.127700  -8.290880  -3.168190  -7.484780 -13.566300   6.563580  -6.000870  13.460700  40.327800  28.140800 -62.003600 -24.595700  -0.006109   0.011797  -7.297830  -0.003047   0.002344 -34.518300   6.712810  -9.645740 -28.705300  -0.001558  -0.002253 -20.093700   0.005000  -0.001834 -28.702000   2.288530  -4.172200 -41.303600  -0.001871  -0.000819 -27.508200   0.010464  -0.000928 -28.728000  -0.831972   1.517430 -39.967000   0.008042   0.000706 -26.618000   0.001891   0.000362 -35.557800  -1.006550   1.407710 -53.355300  -0.001820   0.000474 -35.534600   0.002212  -0.001793   4.903990   0.712219   9.684740  69.967700  14.597400   2.052170   1.136970   0.876391   9.229760 -12.600500 -18.558200  -2.200100 -45.577400  42.909700  81.174900  29.521000  -0.001563   0.000975   9.765800   0.000186   0.000867  40.148600   6.174420   7.266340  33.169900   0.000752   0.002586  23.376700   0.006213   0.002635  31.043700   4.951360   8.152920  47.095700  -0.001215   0.005208  31.365700  -0.005054   0.009353  31.548900   3.560210   5.775280  47.592900  -0.002636   0.013818  31.696900   0.000720   0.012760  38.433400  -0.631868  -0.799627  57.656600   0.007163  -0.006267  38.399400  -0.003030  -0.001602   2.478740   6.698790   0.937292   0.688617   0.594621  -0.076436  -1.621000  -3.493530  13.164400   0.000000   0.000000  -0.000000   1.173210   1.074630  -5.271710   1.695770   5.537130   0.832864  -5.690170  -2.290340   0.996615   0.000000   0.000000   0.000000
  1.287600  89.501800  -0.524219  -2.733530  -3.674180  -2.546680   1.446500   3.676130   0.384589   2.877120   7.360730   0.677969  -0.545922  -0.635746  -0.010239  -0.897192  -1.288990   6.308810  -5.150170   2.512900  -1.442540 -71.653700  16.135600  -8.286910  -3.163640  -7.530690 -13.451000   6.530700  -5.949870  13.449800  40.358800  28.150400 -62.058200 -24.537300  -0.006498   0.011927  -7.268660  -0.003244   0.002394 -34.490600   6.752190  -9.711150 -28.689400  -0.001572  -0.002295 -20.082600   0.004990  -0.001863 -28.696600   2.325300  -4.239550 -41.280900  -0.001913  -0.000856 -27.493100   0.010450  -0.000948 -28.728700  -0.794098   1.448370 -39.940300   0.008037   0.000719 -26.600200   0.001867   0.000366 -35.537900  -0.960242   1.344000 -53.323800  -0.001852   0.000444 -35.513600   0.002156  -0.001734   4.922030   0.724639   9.662230  69.986400  14.623300   2.052440   1.154710   0.877541   9.220860 -12.593900 -18.509600  -2.184860 -45.593000  42.916200  81.174500  29.520300  -0.001585   0.000994   9.760120   0.000191   0.000881  40.132900   6.189230   7.287530  33.158800   0.000730   0.002588  23.366500   0.006209   0.002635  31.032400   4.951210   8.164030  47.078900  -0.001203   0.005217  31.354600  -0.005064   0.009352  31.539900   3.560200   5.775300  47.579100  -0.002618   0.013830  31.687700   0.000720   0.012761  38.436600  -0.631919  -0.799667  57.661400   0.007160  -0.006232  38.402500  -0.003037  -0.001589   2.478550   6.693290   0.937243   0.688598   0.606530  -0.076636  -1.626660  -3.492460  13.141900   0.000000   0.000000  -0.000000   1.173240   1.070570  -5.277980   1.691130   5.552120   0.828466  -5.690350  -2.290330   0.985748   0.000000   0.000000   0.000000
  1.287580  89.501800  -0.524740  -2.732760  -3.677310  -2.533730   1.445280   3.675920   0.387832   2.874530   7.360440   0.684548  -0.538584  -0.610494  -0.010230  -0.885698  -1.237770   6.282130  -5.149490   2.524730  -1.450370 -71.683900  16.112100  -8.276110  -3.150440  -7.542030 -13.357700   6.517910  -5.922900  13.452700  40.350600  28.125000 -62.062500 -24.526400  -0.006890   0.012117  -7.263220  -0.003445   0.002472 -34.489700   6.768310  -9.733830 -28.691700  -0.001595  -0.002358 -20.084200   0.004973  -0.001908 -28.694600   2.338650  -4.263930 -41.290700  -0.001970  -0.000909 -27.499700   0.010428  -0.000978 -28.729000  -0.781768   1.425870 -39.941500   0.008030   0.000737 -26.601100   0.001831   0.000369 -35.534500  -0.945197   1.323210 -53.318100  -0.001896   0.000400 -35.509900   0.002069  -0.001641   4.931430   0.730720   9.642310  70.004100  14.647000   2.052670   1.164850   0.874501   9.214960 -12.590300 -18.459900  -2.170490 -45.623300  42.922900  81.176600  29.496400  -0.001639   0.001019   9.746430   0.000194   0.000901  40.114500   6.215860   7.323160  33.146700   0.000687   0.002587  23.355500   0.006205   0.002637  31.022200   4.951140   8.167940  47.063800  -0.001179   0.005232  31.344500  -0.005084   0.009348  31.535500   3.560170   5.775330  47.572600  -0.002588   0.013855  31.683200   0.000714   0.012765  38.442100  -0.631996  -0.799724  57.668300   0.007154  -0.006176  38.407800  -0.003049  -0.001573   2.478140   6.699400   0.936964   0.688595   0.592163  -0.076590  -1.634020  -3.479090  13.127200   0.000000   0.000000   0.000000   1.173210   1.065970  -5.285740   1.684650   5.569210   0.836339  -5.690790  -2.290390   0.971208   0.000000   0.000000  -0.000000
  1.287470  89.501800  -0.525940  -2.732220  -3.684190  -2.522290   1.444570   3.675820   0.391542   2.872810   7.360310   0.692022  -0.534804  -0.586961  -0.010218  -0.878821  -1.189930   6.259740  -5.148880   2.536020  -1.456960 -71.719400  16.088400  -8.268130  -3.134840  -7.555220 -13.266100   6.510740  -5.911490  13.459200  40.328100  28.092900 -62.053000 -24.524900  -0.007127   0.012311  -7.262440  -0.003567   0.002552 -34.496100   6.773330  -9.738880 -28.696700  -0.001620  -0.002429 -20.087700   0.004952  -0.001960 -28.694000   2.341980  -4.269970 -41.308600  -0.002030  -0.000969 -27.511600   0.010401  -0.001014 -28.728900  -0.779479   1.421680 -39.944600   0.008022   0.000759 -26.603400   0.001785   0.000373 -35.533300  -0.942424   1.319330 -53.316200  -0.001942   0.000351 -35.508600   0.001960  -0.001524   4.937710   0.734759   9.622620  70.020200  14.669300   2.052890   1.173010   0.871453   9.212020 -12.592500 -18.410400  -2.156160 -45.663800  42.929200  81.177700  29.473200  -0.001708   0.001044   9.736610   0.000196   0.000925  40.094700   6.241760   7.358330  33.133500   0.000632   0.002587  23.343500   0.006200   0.002641  31.012300   4.951080   8.170140  47.049200  -0.001149   0.005253  31.334800  -0.005112   0.009342  31.532500   3.560130   5.775370  47.568400  -0.002550   0.013890  31.680200   0.000704   0.012768  38.445900  -0.632090  -0.799793  57.675500   0.007146  -0.006103  38.411900  -0.003063  -0.001553   2.477740   6.708260   0.936577   0.688592   0.577796  -0.076544  -1.642200  -3.463740  13.113600   0.000000   0.000000   0.000000   1.173220   1.063100  -5.293300   1.680330   5.579890   0.844203  -5.691270  -2.290480   0.957526   0.000000   0.000000   0.000000
  1.286780  89.501800  -0.527538  -2.731790  -3.693050  -2.511200   1.444430   3.676560   0.396624   2.872130   7.361870   0.702203  -0.533760  -0.568395  -0.010198  -0.875480  -1.152120   6.241490  -5.148430   2.548350  -1.459710 -71.749900  16.095000  -8.269900  -3.123210  -7.597460 -13.178200   6.501820  -5.913080  13.468500  40.296500  28.062400 -62.030900 -24.544900  -0.006971   0.012377  -7.272480  -0.003488   0.002615 -34.508100   6.764340  -9.722560 -28.705100  -0.001640  -0.002498 -20.093600   0.004927  -0.002011 -28.695200   2.334170  -4.255600 -41.330900  -0.002086  -0.001031 -27.526400   0.010369  -0.001050 -28.728200  -0.788649   1.438410 -39.951300   0.008012   0.000780 -26.607800   0.001733   0.000377 -35.531300  -0.953447   1.334900 -53.313500  -0.001985   0.000305 -35.506800   0.001839  -0.001393   4.941130   0.737498   9.604590  70.030400  14.683400   2.052830   1.179230   0.880755   9.219340 -12.601700 -18.368800  -2.141210 -45.685900  42.929600  81.152600  29.475500  -0.001781   0.001057   9.737760   0.000197   0.000954  40.076400   6.253330   7.377390  33.119900   0.000573   0.002592  23.331100   0.006191   0.002643  31.004300   4.951020   8.173060  47.037200  -0.001115   0.005277  31.326800  -0.005148   0.009339  31.530700   3.560100   5.775400  47.565600  -0.002504   0.013935  31.678400   0.000694   0.012772  38.445300  -0.632192  -0.799867  57.681600   0.007137  -0.006017  38.412500  -0.003081  -0.001528   2.477550   6.713170   0.936276   0.688563   0.578981  -0.076661  -1.648500  -3.460250  13.099500  -0.000000   0.000000  -0.000000   1.173480   1.081200  -5.298610   1.680870   5.568290   0.843983  -5.692900  -2.290520   0.950515   0.000000   0.000000   0.000000
